<svg xmlns="http://www.w3.org/2000/svg" xmlns:xlink="http://www.w3.org/1999/xlink" width="367" zoomAndPan="magnify" viewBox="0 0 275.25 95.999999" height="128" preserveAspectRatio="xMidYMid meet" version="1.0"><defs><g/></defs><g fill="#292727" fill-opacity="1"><g transform="translate(94.109729, 31.102342)"><g><path d="M 15.078125 -10.359375 L 11.921875 -10.546875 C 9.316406 -10.671875 7.257812 -10.140625 5.75 -8.953125 C 3.957031 -7.578125 3.015625 -5.925781 2.921875 -4 C 2.878906 -3.09375 3.050781 -2.25 3.4375 -1.46875 C 3.832031 -0.6875 4.5625 -0.0234375 5.625 0.515625 C 6.6875 1.054688 8.144531 1.375 10 1.46875 C 11.863281 1.5625 13.847656 1.265625 15.953125 0.578125 C 18.054688 -0.0976562 19.847656 -0.953125 21.328125 -1.984375 C 23.015625 -3.171875 23.878906 -4.234375 23.921875 -5.171875 C 23.941406 -5.628906 23.71875 -5.921875 23.25 -6.046875 C 22.78125 -6.171875 22.539062 -6.304688 22.53125 -6.453125 C 22.5 -6.628906 22.648438 -6.695312 22.984375 -6.65625 C 23.316406 -6.625 23.585938 -6.546875 23.796875 -6.421875 C 24.660156 -5.898438 25.070312 -5.269531 25.03125 -4.53125 C 24.976562 -3.425781 24.160156 -2.3125 22.578125 -1.1875 C 20.992188 -0.0625 19.019531 0.796875 16.65625 1.390625 C 14.300781 1.984375 12.109375 2.226562 10.078125 2.125 C 8.046875 2.03125 6.414062 1.753906 5.1875 1.296875 C 2.988281 0.492188 1.601562 -0.847656 1.03125 -2.734375 C 0.875 -3.210938 0.804688 -3.671875 0.828125 -4.109375 C 0.847656 -4.546875 0.953125 -5.078125 1.140625 -5.703125 C 1.328125 -6.335938 1.71875 -7.050781 2.3125 -7.84375 C 2.90625 -8.644531 3.742188 -9.375 4.828125 -10.03125 C 5.910156 -10.6875 7.050781 -11.15625 8.25 -11.4375 C 9.457031 -11.726562 10.539062 -11.867188 11.5 -11.859375 C 10.519531 -12.265625 9.695312 -12.800781 9.03125 -13.46875 C 8.375 -14.132812 8.066406 -14.832031 8.109375 -15.5625 C 8.109375 -15.625 8.109375 -15.6875 8.109375 -15.75 C 8.335938 -17.332031 9.3125 -18.710938 11.03125 -19.890625 C 12.75 -21.078125 14.523438 -21.867188 16.359375 -22.265625 C 18.203125 -22.660156 19.78125 -22.820312 21.09375 -22.75 C 21.507812 -22.726562 21.910156 -22.691406 22.296875 -22.640625 C 23.929688 -22.359375 25.085938 -21.890625 25.765625 -21.234375 C 26.441406 -20.578125 26.765625 -19.929688 26.734375 -19.296875 C 26.679688 -18.410156 26.128906 -17.585938 25.078125 -16.828125 C 24.023438 -16.066406 22.769531 -15.566406 21.3125 -15.328125 C 20.957031 -15.253906 20.664062 -15.222656 20.4375 -15.234375 C 20.207031 -15.242188 20.101562 -15.3125 20.125 -15.4375 C 20.21875 -15.664062 20.5625 -15.800781 21.15625 -15.84375 C 21.75 -15.882812 22.332031 -16.085938 22.90625 -16.453125 C 24.050781 -17.191406 24.734375 -18.203125 24.953125 -19.484375 C 24.953125 -19.546875 24.957031 -19.601562 24.96875 -19.65625 C 24.988281 -20.15625 24.773438 -20.625 24.328125 -21.0625 C 23.765625 -21.644531 22.785156 -21.96875 21.390625 -22.03125 C 19.992188 -22.101562 18.535156 -21.953125 17.015625 -21.578125 C 15.492188 -21.203125 14.070312 -20.535156 12.75 -19.578125 C 11.207031 -18.453125 10.398438 -17.164062 10.328125 -15.71875 C 10.296875 -15.144531 10.4375 -14.613281 10.75 -14.125 C 11.070312 -13.632812 11.554688 -13.257812 12.203125 -13 C 12.859375 -12.738281 13.515625 -12.515625 14.171875 -12.328125 C 15.679688 -11.941406 16.425781 -11.488281 16.40625 -10.96875 C 16.375 -10.519531 15.929688 -10.316406 15.078125 -10.359375 Z M 15.078125 -10.359375 "/></g></g></g><g fill="#292727" fill-opacity="1"><g transform="translate(117.300784, 32.259054)"><g><path d="M 10.046875 -9.84375 L 9.875 -9.3125 C 8.707031 -6.238281 7.664062 -4 6.75 -2.59375 C 5.414062 -0.570312 4.066406 0.40625 2.703125 0.34375 C 1.597656 0.28125 1.070312 -0.28125 1.125 -1.34375 C 1.164062 -2.15625 1.523438 -3.390625 2.203125 -5.046875 C 1.992188 -4.742188 1.835938 -4.648438 1.734375 -4.765625 C 1.628906 -4.878906 1.613281 -5.007812 1.6875 -5.15625 L 2.265625 -6.140625 C 2.679688 -6.878906 2.90625 -7.632812 2.9375 -8.40625 C 2.976562 -9.175781 2.847656 -9.632812 2.546875 -9.78125 C 3.734375 -9.925781 4.421875 -9.988281 4.609375 -9.96875 C 4.804688 -9.945312 4.925781 -9.851562 4.96875 -9.6875 C 5.019531 -9.53125 5.039062 -9.351562 5.03125 -9.15625 C 4.96875 -7.957031 4.582031 -6.554688 3.875 -4.953125 C 3.175781 -3.347656 2.8125 -2.265625 2.78125 -1.703125 C 2.75 -1.140625 2.816406 -0.8125 2.984375 -0.71875 C 3.160156 -0.625 3.335938 -0.570312 3.515625 -0.5625 C 4.035156 -0.53125 4.640625 -0.910156 5.328125 -1.703125 C 6.023438 -2.503906 6.734375 -3.703125 7.453125 -5.296875 C 7.203125 -5.921875 7.085938 -6.472656 7.109375 -6.953125 C 7.140625 -7.441406 7.222656 -7.875 7.359375 -8.25 C 7.773438 -9.351562 8.375 -10.019531 9.15625 -10.25 C 9.3125 -10.3125 9.457031 -10.335938 9.59375 -10.328125 C 9.90625 -10.316406 10.054688 -10.15625 10.046875 -9.84375 Z M 10.046875 -9.84375 "/></g></g></g><g fill="#292727" fill-opacity="1"><g transform="translate(124.154623, 32.600906)"><g><path d="M 3.21875 -4.40625 C 2.90625 -3.75 2.726562 -3.007812 2.6875 -2.1875 C 2.664062 -1.632812 2.769531 -1.1875 3 -0.84375 C 3.226562 -0.5 3.570312 -0.316406 4.03125 -0.296875 C 5.8125 -0.210938 7.515625 -1.820312 9.140625 -5.125 C 9.285156 -5.425781 9.457031 -5.550781 9.65625 -5.5 C 9.738281 -5.476562 9.773438 -5.425781 9.765625 -5.34375 C 9.765625 -5.269531 9.515625 -4.765625 9.015625 -3.828125 C 8.523438 -2.898438 8.039062 -2.148438 7.5625 -1.578125 C 6.5 -0.242188 5.226562 0.382812 3.75 0.3125 C 2.96875 0.269531 2.3125 -0.0195312 1.78125 -0.5625 C 1.257812 -1.101562 1.019531 -1.816406 1.0625 -2.703125 C 1.101562 -3.585938 1.359375 -4.515625 1.828125 -5.484375 C 2.304688 -6.453125 2.929688 -7.347656 3.703125 -8.171875 C 4.472656 -8.992188 5.34375 -9.582031 6.3125 -9.9375 C 6.769531 -10.101562 7.203125 -10.175781 7.609375 -10.15625 C 8.023438 -10.132812 8.398438 -10 8.734375 -9.75 C 9.054688 -9.457031 9.210938 -9.144531 9.203125 -8.8125 C 9.140625 -7.625 8.375 -6.53125 6.90625 -5.53125 C 6.457031 -5.21875 5.832031 -4.945312 5.03125 -4.71875 C 4.238281 -4.488281 3.632812 -4.382812 3.21875 -4.40625 Z M 8.40625 -8.875 C 8.414062 -9.269531 8.265625 -9.472656 7.953125 -9.484375 C 7.398438 -9.515625 6.535156 -8.878906 5.359375 -7.578125 C 4.648438 -6.773438 4.007812 -5.882812 3.4375 -4.90625 C 3.78125 -4.882812 4.273438 -4.972656 4.921875 -5.171875 C 5.578125 -5.378906 6.144531 -5.664062 6.625 -6.03125 C 7.757812 -6.90625 8.351562 -7.851562 8.40625 -8.875 Z M 8.40625 -8.875 "/></g></g></g><g fill="#292727" fill-opacity="1"><g transform="translate(130.535776, 32.919182)"><g><path d="M 11.09375 -9.15625 C 8.457031 -5.03125 7.101562 -2.316406 7.03125 -1.015625 C 7.007812 -0.503906 7.1875 -0.238281 7.5625 -0.21875 C 8.5625 -0.164062 9.992188 -1.800781 11.859375 -5.125 C 11.992188 -5.394531 12.117188 -5.492188 12.234375 -5.421875 C 12.347656 -5.359375 12.398438 -5.28125 12.390625 -5.1875 C 12.390625 -5.09375 12.347656 -4.976562 12.265625 -4.84375 C 11.109375 -2.789062 10.148438 -1.378906 9.390625 -0.609375 C 8.640625 0.148438 7.90625 0.515625 7.1875 0.484375 C 6.476562 0.453125 5.945312 0.148438 5.59375 -0.421875 C 5.40625 -0.691406 5.320312 -1.046875 5.34375 -1.484375 C 5.375 -1.929688 5.503906 -2.460938 5.734375 -3.078125 C 5.960938 -3.703125 6.550781 -4.703125 7.5 -6.078125 C 7.726562 -6.421875 7.847656 -6.695312 7.859375 -6.90625 C 7.867188 -7.113281 7.703125 -7.222656 7.359375 -7.234375 C 7.023438 -7.253906 6.375 -6.84375 5.40625 -6 C 3.914062 -4.78125 2.441406 -2.90625 0.984375 -0.375 C 0.859375 -0.175781 0.722656 -0.0546875 0.578125 -0.015625 C 0.429688 0.0234375 0.140625 0.046875 -0.296875 0.046875 C -0.734375 0.046875 -1.023438 0.078125 -1.171875 0.140625 C -0.828125 -0.460938 -0.140625 -1.722656 0.890625 -3.640625 C 2.710938 -6.992188 3.898438 -8.898438 4.453125 -9.359375 C 4.691406 -9.585938 5.019531 -9.691406 5.4375 -9.671875 C 5.519531 -9.671875 5.71875 -9.632812 6.03125 -9.5625 C 6.351562 -9.488281 6.585938 -9.460938 6.734375 -9.484375 C 5.992188 -9.140625 4.71875 -7.351562 2.90625 -4.125 C 3.882812 -5.21875 4.769531 -6.082031 5.5625 -6.71875 C 6.351562 -7.363281 7.289062 -7.953125 8.375 -8.484375 C 9.46875 -9.015625 10.265625 -9.265625 10.765625 -9.234375 C 10.878906 -9.234375 10.988281 -9.207031 11.09375 -9.15625 Z M 11.09375 -9.15625 "/></g></g></g><g fill="#292727" fill-opacity="1"><g transform="translate(139.546238, 33.368601)"><g><path d="M 1.078125 -2.3125 C 1.148438 -3.957031 2.070312 -6.65625 3.84375 -10.40625 L 2.3125 -10.484375 C 2.207031 -10.492188 2.140625 -10.550781 2.109375 -10.65625 C 2.085938 -10.769531 2.101562 -10.878906 2.15625 -10.984375 C 2.21875 -11.085938 2.296875 -11.132812 2.390625 -11.125 L 4.171875 -11.03125 C 4.953125 -12.5625 5.671875 -13.832031 6.328125 -14.84375 C 6.984375 -15.863281 7.578125 -16.539062 8.109375 -16.875 C 8.648438 -17.21875 9.03125 -17.382812 9.25 -17.375 C 9.476562 -17.363281 9.644531 -17.335938 9.75 -17.296875 C 10.1875 -17.054688 10.382812 -16.59375 10.34375 -15.90625 C 10.3125 -15.226562 10.046875 -14.414062 9.546875 -13.46875 C 9.046875 -12.53125 8.5625 -11.65625 8.09375 -10.84375 L 9.515625 -10.765625 C 9.609375 -10.765625 9.664062 -10.710938 9.6875 -10.609375 C 9.71875 -10.503906 9.703125 -10.394531 9.640625 -10.28125 C 9.585938 -10.175781 9.515625 -10.128906 9.421875 -10.140625 L 7.703125 -10.21875 C 6.535156 -8.4375 5.144531 -6.878906 3.53125 -5.546875 L 2.71875 -2.5625 C 2.632812 -2.3125 2.585938 -2.0625 2.578125 -1.8125 C 2.566406 -1.5625 2.625 -1.304688 2.75 -1.046875 C 2.882812 -0.785156 3.097656 -0.644531 3.390625 -0.625 C 3.722656 -0.613281 4.101562 -0.71875 4.53125 -0.9375 C 5.507812 -1.59375 6.625 -3.03125 7.875 -5.25 C 7.957031 -5.414062 8.050781 -5.515625 8.15625 -5.546875 C 8.269531 -5.578125 8.332031 -5.546875 8.34375 -5.453125 C 8.363281 -5.367188 8.328125 -5.234375 8.234375 -5.046875 C 7.523438 -3.722656 6.96875 -2.78125 6.5625 -2.21875 C 5.414062 -0.5625 4.242188 0.238281 3.046875 0.1875 C 2.429688 0.15625 1.9375 -0.09375 1.5625 -0.5625 C 1.195312 -1.039062 1.035156 -1.625 1.078125 -2.3125 Z M 7.4375 -10.875 C 8.851562 -13.144531 9.582031 -14.734375 9.625 -15.640625 C 9.644531 -16.035156 9.585938 -16.234375 9.453125 -16.234375 C 9.234375 -16.253906 8.882812 -15.957031 8.40625 -15.34375 C 7.9375 -14.738281 7.125 -13.273438 5.96875 -10.953125 Z M 7.015625 -10.25 L 5.640625 -10.328125 C 5.378906 -9.785156 4.78125 -8.5 3.84375 -6.46875 C 4.957031 -7.519531 6.015625 -8.78125 7.015625 -10.25 Z M 7.015625 -10.25 "/></g></g></g><g fill="#292727" fill-opacity="1"><g transform="translate(144.568412, 33.619095)"><g><path d="M 4.265625 -0.359375 C 4.515625 -0.296875 4.691406 -0.265625 4.796875 -0.265625 C 5.585938 -0.222656 6.378906 -0.644531 7.171875 -1.53125 C 7.609375 -2.019531 8.410156 -3.273438 9.578125 -5.296875 C 9.628906 -5.398438 9.707031 -5.453125 9.8125 -5.453125 C 9.988281 -5.453125 10.070312 -5.375 10.0625 -5.21875 C 10.0625 -5.1875 10.007812 -5.078125 9.90625 -4.890625 C 9.8125 -4.710938 9.71875 -4.53125 9.625 -4.34375 C 9.539062 -4.15625 9.398438 -3.882812 9.203125 -3.53125 C 9.003906 -3.1875 8.835938 -2.910156 8.703125 -2.703125 C 8.566406 -2.492188 8.390625 -2.234375 8.171875 -1.921875 C 7.960938 -1.617188 7.753906 -1.382812 7.546875 -1.21875 L 6.890625 -0.609375 C 6.535156 -0.285156 6.140625 -0.0664062 5.703125 0.046875 C 4.960938 0.253906 4.25 0.238281 3.5625 0 C 3.101562 0.175781 2.695312 0.253906 2.34375 0.234375 C 0.9375 0.171875 0.113281 -0.421875 -0.125 -1.546875 C -0.175781 -1.804688 -0.191406 -2.117188 -0.171875 -2.484375 C -0.148438 -2.847656 -0.0078125 -3.191406 0.25 -3.515625 C 0.519531 -3.835938 0.789062 -4 1.0625 -4 C 2.164062 -5.851562 3.109375 -7.535156 3.890625 -9.046875 C 4.753906 -10.679688 5.710938 -11.472656 6.765625 -11.421875 C 7.023438 -11.410156 7.285156 -11.332031 7.546875 -11.1875 C 7.804688 -11.039062 7.898438 -10.890625 7.828125 -10.734375 C 7.753906 -10.585938 7.609375 -10.566406 7.390625 -10.671875 C 7.179688 -10.785156 7 -10.847656 6.84375 -10.859375 C 6.695312 -10.867188 6.5625 -10.84375 6.4375 -10.78125 C 5.75 -10.5 5.378906 -9.832031 5.328125 -8.78125 C 5.296875 -8.226562 5.351562 -7.769531 5.5 -7.40625 C 5.644531 -7.050781 5.804688 -6.660156 5.984375 -6.234375 C 6.367188 -5.203125 6.546875 -4.359375 6.515625 -3.703125 C 6.484375 -3.054688 6.25 -2.425781 5.8125 -1.8125 C 5.375 -1.207031 4.859375 -0.722656 4.265625 -0.359375 Z M 3.25 -0.609375 C 4.164062 -1.242188 4.660156 -2.304688 4.734375 -3.796875 C 4.765625 -4.410156 4.734375 -5.25 4.640625 -6.3125 C 4.554688 -7.382812 4.523438 -8.109375 4.546875 -8.484375 C 4.566406 -8.859375 4.585938 -9.113281 4.609375 -9.25 C 2.960938 -6.332031 1.945312 -4.5625 1.5625 -3.9375 C 1.976562 -3.914062 2.171875 -3.609375 2.140625 -3.015625 C 2.078125 -1.847656 2.445312 -1.046875 3.25 -0.609375 Z M 1.078125 -1.515625 C 1.066406 -1.398438 1.070312 -1.273438 1.09375 -1.140625 C 1.226562 -0.597656 1.578125 -0.3125 2.140625 -0.28125 C 2.378906 -0.269531 2.582031 -0.296875 2.75 -0.359375 C 2.039062 -0.859375 1.6875 -1.617188 1.6875 -2.640625 C 1.300781 -2.304688 1.097656 -1.929688 1.078125 -1.515625 Z M 1.078125 -1.515625 "/></g></g></g><g fill="#292727" fill-opacity="1"><g transform="translate(151.244988, 33.952106)"><g/></g></g><g fill="#292727" fill-opacity="1"><g transform="translate(158.01019, 34.289537)"><g><path d="M 9.53125 -7.578125 C 9.582031 -8.703125 9.144531 -9.285156 8.21875 -9.328125 C 8.144531 -9.335938 8.066406 -9.34375 7.984375 -9.34375 C 7.628906 -9.320312 7.425781 -9.398438 7.375 -9.578125 C 7.320312 -9.753906 7.414062 -9.863281 7.65625 -9.90625 C 7.894531 -9.957031 8.148438 -9.960938 8.421875 -9.921875 C 9.441406 -9.710938 10.117188 -9.191406 10.453125 -8.359375 C 10.679688 -7.859375 10.785156 -7.367188 10.765625 -6.890625 C 10.679688 -5.203125 9.976562 -3.570312 8.65625 -2 C 7.332031 -0.40625 5.691406 0.34375 3.734375 0.25 C 3.003906 0.207031 2.421875 -0.03125 1.984375 -0.46875 C 1.554688 -0.90625 1.359375 -1.46875 1.390625 -2.15625 C 1.429688 -2.976562 1.96875 -4.347656 3 -6.265625 C 1.238281 -3.296875 0.113281 -1.597656 -0.375 -1.171875 C -0.582031 -1.003906 -0.679688 -1.066406 -0.671875 -1.359375 C -0.660156 -1.421875 -0.632812 -1.488281 -0.59375 -1.5625 C 0.132812 -2.445312 1.625 -4.84375 3.875 -8.75 C 6.132812 -12.664062 7.710938 -15.222656 8.609375 -16.421875 C 9.316406 -17.359375 9.988281 -17.8125 10.625 -17.78125 C 10.625 -17.78125 10.632812 -17.78125 10.65625 -17.78125 L 10.796875 -17.765625 C 10.816406 -17.765625 10.988281 -17.726562 11.3125 -17.65625 C 11.644531 -17.582031 11.890625 -17.554688 12.046875 -17.578125 C 11.359375 -16.929688 10.265625 -15.601562 8.765625 -13.59375 C 5.046875 -8.625 3.125 -4.875 3 -2.34375 C 2.945312 -1.300781 3.25 -0.691406 3.90625 -0.515625 C 3.96875 -0.492188 4.035156 -0.484375 4.109375 -0.484375 C 4.722656 -0.453125 5.515625 -0.957031 6.484375 -2 C 7.453125 -3.050781 8.265625 -4.257812 8.921875 -5.625 C 9.296875 -6.332031 9.5 -6.984375 9.53125 -7.578125 Z M 9.53125 -7.578125 "/></g></g></g><g fill="#292727" fill-opacity="1"><g transform="translate(167.316087, 34.753692)"><g><path d="M -2.859375 9.203125 C -3.734375 9.160156 -4.394531 8.945312 -4.84375 8.5625 C -5.289062 8.175781 -5.5 7.726562 -5.46875 7.21875 C -5.445312 6.707031 -5.273438 6.132812 -4.953125 5.5 C -4.390625 4.53125 -3.425781 3.769531 -2.0625 3.21875 C -1.03125 2.800781 0.320312 2.429688 2 2.109375 C 3.6875 1.785156 4.765625 1.566406 5.234375 1.453125 C 5.992188 0.234375 6.945312 -1.941406 8.09375 -5.078125 C 6.863281 -3.117188 5.84375 -1.753906 5.03125 -0.984375 C 4.21875 -0.222656 3.421875 0.132812 2.640625 0.09375 C 1.566406 0.0390625 0.960938 -0.429688 0.828125 -1.328125 C 0.765625 -1.460938 0.757812 -1.664062 0.8125 -1.9375 C 0.863281 -2.21875 0.894531 -2.414062 0.90625 -2.53125 C 0.925781 -2.644531 1 -2.832031 1.125 -3.09375 C 1.257812 -3.351562 1.351562 -3.546875 1.40625 -3.671875 C 1.644531 -4.109375 1.847656 -4.453125 2.015625 -4.703125 C 1.691406 -4.722656 1.613281 -4.882812 1.78125 -5.1875 L 2.359375 -6.171875 C 3.085938 -7.421875 3.691406 -8.476562 4.171875 -9.34375 C 4.390625 -9.75 4.785156 -9.941406 5.359375 -9.921875 L 7.140625 -9.828125 C 7.097656 -9.785156 7 -9.710938 6.84375 -9.609375 C 6.488281 -9.378906 6.210938 -9.113281 6.015625 -8.8125 C 5.242188 -7.632812 4.269531 -5.941406 3.09375 -3.734375 C 2.613281 -2.828125 2.363281 -2.15625 2.34375 -1.71875 C 2.320312 -1.289062 2.378906 -0.984375 2.515625 -0.796875 C 2.648438 -0.609375 2.847656 -0.507812 3.109375 -0.5 C 3.484375 -0.476562 4.023438 -0.84375 4.734375 -1.59375 C 6.210938 -3.15625 7.882812 -5.644531 9.75 -9.0625 C 9.976562 -9.46875 10.367188 -9.660156 10.921875 -9.640625 L 12.53125 -9.5625 C 12 -9.226562 11.570312 -8.796875 11.25 -8.265625 C 10.9375 -7.742188 10.582031 -7.03125 10.1875 -6.125 C 9.789062 -5.21875 9.289062 -4.007812 8.6875 -2.5 C 8.09375 -0.988281 7.632812 0.140625 7.3125 0.890625 C 9.195312 0.429688 10.671875 -0.46875 11.734375 -1.8125 C 12.203125 -2.40625 12.875 -3.460938 13.75 -4.984375 C 13.90625 -5.242188 14.035156 -5.34375 14.140625 -5.28125 C 14.242188 -5.21875 14.289062 -5.132812 14.28125 -5.03125 C 14.28125 -4.9375 14.101562 -4.566406 13.75 -3.921875 C 13.394531 -3.273438 13.035156 -2.679688 12.671875 -2.140625 C 12.304688 -1.597656 11.835938 -1.039062 11.265625 -0.46875 C 10.703125 0.09375 10.085938 0.53125 9.421875 0.84375 C 8.753906 1.15625 7.867188 1.484375 6.765625 1.828125 C 5.128906 4.515625 3.507812 6.460938 1.90625 7.671875 C 0.40625 8.773438 -1.179688 9.285156 -2.859375 9.203125 Z M -4.421875 6.203125 C -4.671875 6.617188 -4.800781 7.007812 -4.8125 7.375 C -4.832031 7.738281 -4.707031 8.023438 -4.4375 8.234375 C -4.175781 8.441406 -3.835938 8.554688 -3.421875 8.578125 C -2.273438 8.640625 -1.023438 8.117188 0.328125 7.015625 C 1.691406 5.910156 2.898438 4.710938 3.953125 3.421875 L 4.65625 2.359375 C 1.363281 3.054688 -0.71875 3.570312 -1.59375 3.90625 C -2.875 4.394531 -3.816406 5.160156 -4.421875 6.203125 Z M -4.421875 6.203125 "/></g></g></g><g fill="#292727" fill-opacity="1"><g transform="translate(11.099076, 67.260658)"><g><path d="M 16.828125 -1.609375 C 14.046875 0.628906 10.96875 1.75 7.59375 1.75 C 3.726562 1.75 1.347656 0.671875 0.453125 -1.484375 C 0.242188 -1.992188 0.140625 -2.582031 0.140625 -3.25 C 0.140625 -3.925781 0.484375 -4.65625 1.171875 -5.4375 C 2.242188 -6.65625 3.738281 -7.265625 5.65625 -7.265625 C 6.945312 -7.265625 8.238281 -7.03125 9.53125 -6.5625 C 10.832031 -6.101562 13.144531 -4.992188 16.46875 -3.234375 C 17.96875 -4.671875 19.460938 -6.582031 20.953125 -8.96875 C 22.453125 -11.363281 23.75 -13.675781 24.84375 -15.90625 C 25.9375 -18.144531 27.269531 -20.578125 28.84375 -23.203125 C 30.414062 -25.835938 31.976562 -28.023438 33.53125 -29.765625 C 30.175781 -31.765625 26.613281 -32.765625 22.84375 -32.765625 C 21.289062 -32.765625 19.707031 -32.601562 18.09375 -32.28125 C 13.457031 -31.289062 9.925781 -29.269531 7.5 -26.21875 C 6 -24.363281 5.25 -22.597656 5.25 -20.921875 C 5.25 -18.640625 6.34375 -17.15625 8.53125 -16.46875 C 9.3125 -16.257812 9.984375 -16.15625 10.546875 -16.15625 C 11.117188 -16.15625 11.753906 -16.242188 12.453125 -16.421875 C 13.160156 -16.609375 13.859375 -17.03125 14.546875 -17.6875 C 15.859375 -19 16.5625 -20.226562 16.65625 -21.375 C 16.6875 -21.632812 16.859375 -21.726562 17.171875 -21.65625 C 17.484375 -21.582031 17.609375 -21.351562 17.546875 -20.96875 C 17.253906 -18.78125 16.101562 -17.117188 14.09375 -15.984375 C 12.863281 -15.328125 11.640625 -15 10.421875 -15 L 8.078125 -15.390625 C 5.804688 -16.171875 4.3125 -17.625 3.59375 -19.75 C 3.289062 -20.5625 3.140625 -21.367188 3.140625 -22.171875 C 3.140625 -23.816406 3.753906 -25.445312 4.984375 -27.0625 C 7.617188 -30.59375 12.285156 -32.851562 18.984375 -33.84375 C 20.304688 -34.019531 21.609375 -34.109375 22.890625 -34.109375 C 27.054688 -34.109375 31.023438 -33.125 34.796875 -31.15625 C 35.960938 -32.5 37.035156 -33.519531 38.015625 -34.21875 C 39.003906 -34.925781 39.800781 -35.28125 40.40625 -35.28125 C 40.726562 -35.28125 40.921875 -35.210938 40.984375 -35.078125 C 41.046875 -34.941406 41.035156 -34.835938 40.953125 -34.765625 C 40.878906 -34.691406 40.785156 -34.65625 40.671875 -34.65625 C 40.160156 -34.65625 39.5 -34.113281 38.6875 -33.03125 C 37.882812 -31.957031 37.226562 -30.957031 36.71875 -30.03125 C 39.925781 -27.90625 42.363281 -25.179688 44.03125 -21.859375 C 45.382812 -19.191406 46.0625 -16.289062 46.0625 -13.15625 C 46.0625 -9.257812 45.132812 -6.160156 43.28125 -3.859375 C 41.75 -1.972656 39.890625 -0.640625 37.703125 0.140625 C 35.097656 1.066406 32.523438 1.53125 29.984375 1.53125 C 24.835938 1.53125 20.453125 0.484375 16.828125 -1.609375 Z M 17.90625 -2.421875 C 20.9375 -0.628906 24.484375 0.265625 28.546875 0.265625 C 33.273438 0.265625 37.046875 -1.078125 39.859375 -3.765625 C 42.109375 -5.953125 43.234375 -8.976562 43.234375 -12.84375 C 43.234375 -15.59375 42.691406 -18.179688 41.609375 -20.609375 C 40.265625 -23.691406 38.273438 -26.265625 35.640625 -28.328125 C 34.773438 -26.984375 33.109375 -24.265625 30.640625 -20.171875 C 28.171875 -16.085938 26.082031 -12.773438 24.375 -10.234375 C 22.664062 -7.691406 21.316406 -5.890625 20.328125 -4.828125 C 19.347656 -3.765625 18.539062 -2.960938 17.90625 -2.421875 Z M 15.3125 -2.328125 C 11.8125 -4.003906 9.59375 -5.003906 8.65625 -5.328125 C 7.726562 -5.660156 6.820312 -5.828125 5.9375 -5.828125 C 5.0625 -5.828125 4.359375 -5.5 3.828125 -4.84375 C 3.304688 -4.1875 3.046875 -3.597656 3.046875 -3.078125 C 3.046875 -2.554688 3.164062 -2.054688 3.40625 -1.578125 C 4.039062 -0.285156 5.328125 0.359375 7.265625 0.359375 C 10.140625 0.359375 12.820312 -0.535156 15.3125 -2.328125 Z M 15.3125 -2.328125 "/></g></g></g><g fill="#292727" fill-opacity="1"><g transform="translate(56.302723, 67.260658)"><g><path d="M 4.53125 -6.90625 C 4.113281 -5.894531 3.90625 -4.757812 3.90625 -3.5 C 3.90625 -2.664062 4.09375 -2 4.46875 -1.5 C 4.84375 -1.007812 5.375 -0.765625 6.0625 -0.765625 C 8.78125 -0.765625 11.25 -3.320312 13.46875 -8.4375 C 13.675781 -8.914062 13.929688 -9.125 14.234375 -9.0625 C 14.347656 -9.03125 14.40625 -8.953125 14.40625 -8.828125 C 14.40625 -8.710938 14.066406 -7.929688 13.390625 -6.484375 C 12.722656 -5.035156 12.046875 -3.863281 11.359375 -2.96875 C 9.828125 -0.875 7.941406 0.171875 5.703125 0.171875 C 4.503906 0.171875 3.484375 -0.210938 2.640625 -0.984375 C 1.804688 -1.765625 1.390625 -2.828125 1.390625 -4.171875 C 1.390625 -5.515625 1.710938 -6.941406 2.359375 -8.453125 C 3.003906 -9.972656 3.878906 -11.382812 4.984375 -12.6875 C 6.085938 -13.988281 7.359375 -14.9375 8.796875 -15.53125 C 9.484375 -15.832031 10.140625 -15.984375 10.765625 -15.984375 C 11.398438 -15.984375 11.988281 -15.800781 12.53125 -15.4375 C 13.03125 -15.019531 13.28125 -14.554688 13.28125 -14.046875 C 13.28125 -12.253906 12.207031 -10.535156 10.0625 -8.890625 C 9.394531 -8.378906 8.460938 -7.921875 7.265625 -7.515625 C 6.078125 -7.109375 5.164062 -6.90625 4.53125 -6.90625 Z M 12.078125 -14.09375 C 12.078125 -14.695312 11.835938 -15 11.359375 -15 C 10.515625 -15 9.242188 -13.960938 7.546875 -11.890625 C 6.523438 -10.640625 5.625 -9.234375 4.84375 -7.671875 C 5.351562 -7.671875 6.09375 -7.847656 7.0625 -8.203125 C 8.039062 -8.566406 8.890625 -9.050781 9.609375 -9.65625 C 11.253906 -11.0625 12.078125 -12.539062 12.078125 -14.09375 Z M 12.078125 -14.09375 "/></g></g></g><g fill="#292727" fill-opacity="1"><g transform="translate(67.031279, 67.260658)"><g><path d="M 5.03125 -8.65625 C 5 -8.539062 4.863281 -8.128906 4.625 -7.421875 C 4.382812 -6.722656 4.179688 -6.050781 4.015625 -5.40625 C 3.847656 -4.757812 3.765625 -4.113281 3.765625 -3.46875 C 3.765625 -2.832031 3.914062 -2.238281 4.21875 -1.6875 C 4.519531 -1.132812 5 -0.859375 5.65625 -0.859375 C 6.726562 -0.859375 7.773438 -1.582031 8.796875 -3.03125 C 9.816406 -4.476562 10.894531 -6.328125 12.03125 -8.578125 C 12.269531 -8.992188 12.492188 -9.15625 12.703125 -9.0625 C 12.847656 -8.945312 12.875 -8.789062 12.78125 -8.59375 C 12.695312 -8.40625 12.515625 -7.988281 12.234375 -7.34375 C 11.953125 -6.695312 11.742188 -6.242188 11.609375 -5.984375 C 11.472656 -5.734375 11.234375 -5.285156 10.890625 -4.640625 C 10.546875 -4.003906 10.242188 -3.523438 9.984375 -3.203125 C 9.734375 -2.890625 9.390625 -2.484375 8.953125 -1.984375 C 8.523438 -1.492188 8.113281 -1.128906 7.71875 -0.890625 C 6.675781 -0.234375 5.6875 0.09375 4.75 0.09375 C 3.820312 0.09375 3.101562 -0.109375 2.59375 -0.515625 C 2.09375 -0.921875 1.789062 -1.351562 1.6875 -1.8125 C 1.582031 -2.28125 1.53125 -2.691406 1.53125 -3.046875 C 1.53125 -3.410156 1.546875 -3.875 1.578125 -4.4375 C 1.660156 -5.394531 1.84375 -6.320312 2.125 -7.21875 C 2.414062 -8.125 2.578125 -8.632812 2.609375 -8.75 C 3.296875 -11.238281 4.273438 -13.945312 5.546875 -16.875 C 6.816406 -19.8125 7.890625 -22.019531 8.765625 -23.5 C 9.648438 -24.976562 10.347656 -25.988281 10.859375 -26.53125 C 11.878906 -27.601562 12.882812 -28.140625 13.875 -28.140625 C 14.5625 -28.140625 15.023438 -27.648438 15.265625 -26.671875 C 15.296875 -26.484375 15.3125 -26.253906 15.3125 -25.984375 C 15.3125 -24.972656 14.953125 -23.6875 14.234375 -22.125 C 11.660156 -16.414062 8.59375 -11.925781 5.03125 -8.65625 Z M 5.390625 -10.09375 C 6.910156 -11.65625 8.421875 -13.617188 9.921875 -15.984375 C 11.421875 -18.347656 12.519531 -20.359375 13.21875 -22.015625 C 13.925781 -23.679688 14.28125 -24.8125 14.28125 -25.40625 C 14.28125 -26.007812 14.175781 -26.3125 13.96875 -26.3125 C 13.664062 -26.3125 13.09375 -25.71875 12.25 -24.53125 C 11.414062 -23.351562 10.285156 -21.226562 8.859375 -18.15625 C 7.441406 -15.09375 6.285156 -12.40625 5.390625 -10.09375 Z M 5.390625 -10.09375 "/></g></g></g><g fill="#292727" fill-opacity="1"><g transform="translate(76.233598, 67.260658)"><g><path d="M 8.703125 -17.453125 C 8.285156 -17.097656 7.820312 -16.921875 7.3125 -16.921875 C 6.800781 -16.921875 6.394531 -17.097656 6.09375 -17.453125 C 5.800781 -17.816406 5.6875 -18.253906 5.75 -18.765625 C 5.832031 -19.273438 6.082031 -19.707031 6.5 -20.0625 C 6.925781 -20.425781 7.390625 -20.609375 7.890625 -20.609375 C 8.398438 -20.609375 8.8125 -20.425781 9.125 -20.0625 C 9.445312 -19.707031 9.5625 -19.273438 9.46875 -18.765625 C 9.382812 -18.253906 9.128906 -17.816406 8.703125 -17.453125 Z M 4.3125 -0.984375 C 4.875 -0.984375 5.472656 -1.269531 6.109375 -1.84375 C 7.210938 -2.945312 8.617188 -5.207031 10.328125 -8.625 C 10.535156 -9.070312 10.742188 -9.203125 10.953125 -9.015625 C 11.015625 -8.960938 11.046875 -8.867188 11.046875 -8.734375 C 11.046875 -8.597656 10.925781 -8.265625 10.6875 -7.734375 C 10.445312 -7.210938 10.226562 -6.742188 10.03125 -6.328125 C 9.832031 -5.910156 9.457031 -5.226562 8.90625 -4.28125 C 8.351562 -3.34375 7.851562 -2.617188 7.40625 -2.109375 C 6.175781 -0.703125 5.015625 0 3.921875 0 C 2.835938 0 2.054688 -0.328125 1.578125 -0.984375 C 1.097656 -1.640625 0.859375 -2.375 0.859375 -3.1875 C 0.859375 -4 1.050781 -4.878906 1.4375 -5.828125 L 4.3125 -13.15625 C 4.375 -13.332031 4.40625 -13.566406 4.40625 -13.859375 C 4.40625 -14.160156 4.222656 -14.550781 3.859375 -15.03125 L 6.328125 -15.078125 C 7.015625 -15.078125 7.414062 -14.945312 7.53125 -14.6875 C 7.65625 -14.4375 7.566406 -14.046875 7.265625 -13.515625 L 3.6875 -5.125 C 3.175781 -4.007812 2.921875 -3.066406 2.921875 -2.296875 C 2.921875 -1.421875 3.382812 -0.984375 4.3125 -0.984375 Z M 4.3125 -0.984375 "/></g></g></g><g fill="#292727" fill-opacity="1"><g transform="translate(83.73012, 67.260658)"><g><path d="M -0.53125 14.1875 C -3.351562 14.1875 -4.765625 13.035156 -4.765625 10.734375 C -4.765625 8.816406 -3.460938 7.09375 -0.859375 5.5625 C 1.359375 4.28125 4.1875 3.070312 7.625 1.9375 C 9.21875 1.425781 10.375 1.019531 11.09375 0.71875 C 11.863281 -1.550781 12.25 -4.035156 12.25 -6.734375 C 12.25 -7.273438 12.222656 -7.679688 12.171875 -7.953125 C 11.328125 -6.242188 10.171875 -4.488281 8.703125 -2.6875 C 6.972656 -0.539062 5.253906 0.296875 3.546875 -0.171875 C 1.992188 -0.835938 1.21875 -2.128906 1.21875 -4.046875 C 1.21875 -6.617188 2.503906 -9.445312 5.078125 -12.53125 C 6.484375 -14.195312 8.128906 -15.257812 10.015625 -15.71875 C 10.523438 -15.863281 11.03125 -15.9375 11.53125 -15.9375 C 12.882812 -15.9375 14.203125 -15.488281 15.484375 -14.59375 C 15.960938 -14.195312 16.203125 -13.863281 16.203125 -13.59375 C 16.203125 -13.332031 16.113281 -13.070312 15.9375 -12.8125 C 15.757812 -12.5625 15.570312 -12.53125 15.375 -12.71875 C 15.175781 -12.914062 15.050781 -13.101562 15 -13.28125 C 14.601562 -14.394531 13.972656 -14.953125 13.109375 -14.953125 C 11.523438 -14.953125 9.742188 -13.84375 7.765625 -11.625 C 6.660156 -10.363281 5.703125 -9.019531 4.890625 -7.59375 C 3.898438 -5.789062 3.40625 -4.398438 3.40625 -3.421875 C 3.40625 -2.453125 3.707031 -1.804688 4.3125 -1.484375 C 4.519531 -1.390625 4.726562 -1.34375 4.9375 -1.34375 C 5.625 -1.34375 6.484375 -1.8125 7.515625 -2.75 C 8.546875 -3.695312 9.503906 -4.894531 10.390625 -6.34375 C 11.273438 -7.800781 11.835938 -8.929688 12.078125 -9.734375 C 12.316406 -10.546875 12.609375 -11.054688 12.953125 -11.265625 C 13.296875 -11.472656 13.675781 -11.59375 14.09375 -11.625 C 14.507812 -11.65625 14.796875 -11.726562 14.953125 -11.84375 C 15.191406 -10.5 15.3125 -8.921875 15.3125 -7.109375 C 15.3125 -5.304688 14.992188 -3.25 14.359375 -0.9375 C 15.742188 -1.925781 16.726562 -2.8125 17.3125 -3.59375 C 17.894531 -4.375 18.359375 -5.078125 18.703125 -5.703125 C 19.046875 -6.328125 19.347656 -6.945312 19.609375 -7.5625 C 19.878906 -8.175781 20.0625 -8.570312 20.15625 -8.75 C 20.25 -8.925781 20.398438 -9.035156 20.609375 -9.078125 C 20.816406 -9.128906 20.921875 -9.035156 20.921875 -8.796875 C 20.921875 -8.648438 20.875 -8.472656 20.78125 -8.265625 C 19.46875 -5.535156 18.367188 -3.5625 17.484375 -2.34375 C 16.597656 -1.132812 15.394531 -0.175781 13.875 0.53125 C 13.15625 2.570312 12.113281 4.59375 10.75 6.59375 C 9.382812 8.601562 7.671875 10.367188 5.609375 11.890625 C 3.546875 13.421875 1.5 14.1875 -0.53125 14.1875 Z M -3.8125 11.578125 C -3.8125 12.710938 -3.078125 13.28125 -1.609375 13.28125 C -0.742188 13.28125 0.234375 13.023438 1.328125 12.515625 C 2.421875 12.015625 3.328125 11.492188 4.046875 10.953125 C 5.265625 9.960938 6.609375 8.492188 8.078125 6.546875 C 9.179688 4.992188 10.035156 3.484375 10.640625 2.015625 L 9.0625 2.5625 C 4.394531 4.175781 1.101562 5.613281 -0.8125 6.875 C -2.21875 7.800781 -3.144531 8.984375 -3.59375 10.421875 C -3.738281 10.867188 -3.8125 11.253906 -3.8125 11.578125 Z M -3.8125 11.578125 "/></g></g></g><g fill="#292727" fill-opacity="1"><g transform="translate(101.012542, 67.260658)"><g><path d="M 10.546875 -2.015625 C 10.546875 -1.179688 10.847656 -0.765625 11.453125 -0.765625 C 12.859375 -0.765625 14.847656 -3.394531 17.421875 -8.65625 C 17.628906 -9.082031 17.8125 -9.25 17.96875 -9.15625 C 18.132812 -9.0625 18.21875 -8.941406 18.21875 -8.796875 C 18.21875 -8.648438 18.046875 -8.222656 17.703125 -7.515625 C 17.359375 -6.816406 17.015625 -6.144531 16.671875 -5.5 C 16.328125 -4.851562 15.828125 -4.007812 15.171875 -2.96875 C 13.796875 -0.875 12.332031 0.171875 10.78125 0.171875 C 9.757812 0.171875 8.945312 -0.242188 8.34375 -1.078125 C 8.082031 -1.460938 7.953125 -1.992188 7.953125 -2.671875 C 7.953125 -3.347656 8.097656 -4.160156 8.390625 -5.109375 C 8.691406 -6.066406 9.515625 -7.625 10.859375 -9.78125 C 11.191406 -10.320312 11.359375 -10.75 11.359375 -11.0625 C 11.359375 -11.375 11.101562 -11.53125 10.59375 -11.53125 C 10.082031 -11.53125 9.109375 -10.859375 7.671875 -9.515625 C 5.515625 -7.535156 3.421875 -4.570312 1.390625 -0.625 C 1.179688 -0.175781 0.628906 0.046875 -0.265625 0.046875 C -1.078125 0.109375 -1.585938 0.195312 -1.796875 0.3125 C 3.890625 -11.507812 8.003906 -19.753906 10.546875 -24.421875 C 11.117188 -25.460938 11.617188 -26.191406 12.046875 -26.609375 C 12.484375 -27.035156 13.003906 -27.25 13.609375 -27.25 C 13.753906 -27.25 14.066406 -27.210938 14.546875 -27.140625 C 15.023438 -27.066406 15.382812 -27.039062 15.625 -27.0625 C 14.726562 -26.132812 13.117188 -23.566406 10.796875 -19.359375 C 8.472656 -15.160156 6.25 -10.890625 4.125 -6.546875 C 5.53125 -8.316406 6.796875 -9.695312 7.921875 -10.6875 C 9.046875 -11.675781 10.414062 -12.609375 12.03125 -13.484375 C 13.644531 -14.367188 14.828125 -14.8125 15.578125 -14.8125 C 15.753906 -14.8125 15.921875 -14.78125 16.078125 -14.71875 C 12.390625 -8.257812 10.546875 -4.023438 10.546875 -2.015625 Z M 10.546875 -2.015625 "/></g></g></g><g fill="#292727" fill-opacity="1"><g transform="translate(115.601589, 67.260658)"><g><path d="M 1.4375 -3.59375 C 1.4375 -6.070312 2.632812 -10.234375 5.03125 -16.078125 L 2.6875 -16.078125 C 2.539062 -16.078125 2.441406 -16.15625 2.390625 -16.3125 C 2.347656 -16.476562 2.363281 -16.644531 2.4375 -16.8125 C 2.519531 -16.976562 2.632812 -17.0625 2.78125 -17.0625 L 5.484375 -17.0625 C 6.554688 -19.425781 7.554688 -21.398438 8.484375 -22.984375 C 9.410156 -24.566406 10.257812 -25.632812 11.03125 -26.1875 C 11.8125 -26.75 12.375 -27.03125 12.71875 -27.03125 C 13.070312 -27.03125 13.320312 -27 13.46875 -26.9375 C 14.15625 -26.601562 14.5 -25.921875 14.5 -24.890625 C 14.5 -23.859375 14.15625 -22.609375 13.46875 -21.140625 C 12.78125 -19.671875 12.109375 -18.3125 11.453125 -17.0625 L 13.609375 -17.0625 C 13.753906 -17.0625 13.847656 -16.976562 13.890625 -16.8125 C 13.941406 -16.644531 13.925781 -16.476562 13.84375 -16.3125 C 13.769531 -16.15625 13.660156 -16.078125 13.515625 -16.078125 L 10.90625 -16.078125 C 9.257812 -13.285156 7.269531 -10.8125 4.9375 -8.65625 L 3.90625 -4.078125 C 3.8125 -3.691406 3.765625 -3.3125 3.765625 -2.9375 C 3.765625 -2.5625 3.867188 -2.179688 4.078125 -1.796875 C 4.296875 -1.410156 4.628906 -1.21875 5.078125 -1.21875 C 5.578125 -1.21875 6.144531 -1.394531 6.78125 -1.75 C 8.21875 -2.820312 9.800781 -5.082031 11.53125 -8.53125 C 11.65625 -8.800781 11.796875 -8.960938 11.953125 -9.015625 C 12.117188 -9.078125 12.21875 -9.039062 12.25 -8.90625 C 12.28125 -8.769531 12.238281 -8.554688 12.125 -8.265625 C 11.132812 -6.191406 10.351562 -4.722656 9.78125 -3.859375 C 8.164062 -1.253906 6.445312 0.046875 4.625 0.046875 C 3.695312 0.046875 2.929688 -0.296875 2.328125 -0.984375 C 1.734375 -1.671875 1.4375 -2.539062 1.4375 -3.59375 Z M 10.453125 -17.0625 C 12.429688 -20.59375 13.421875 -23.046875 13.421875 -24.421875 C 13.421875 -25.015625 13.316406 -25.3125 13.109375 -25.3125 C 12.773438 -25.3125 12.269531 -24.832031 11.59375 -23.875 C 10.925781 -22.925781 9.800781 -20.65625 8.21875 -17.0625 Z M 9.875 -16.078125 L 7.765625 -16.078125 C 7.410156 -15.234375 6.601562 -13.238281 5.34375 -10.09375 C 6.957031 -11.769531 8.46875 -13.765625 9.875 -16.078125 Z M 9.875 -16.078125 "/></g></g></g><g fill="#292727" fill-opacity="1"><g transform="translate(124.265238, 67.260658)"><g><path d="M -2.734375 15.625 C -4.378906 15.625 -5.203125 14.800781 -5.203125 13.15625 C -5.203125 10.789062 -3.660156 5.972656 -0.578125 -1.296875 C -0.941406 -1.898438 -1.125 -2.394531 -1.125 -2.78125 C -1.125 -4.039062 -0.835938 -4.878906 -0.265625 -5.296875 C 0.148438 -5.648438 0.5 -5.828125 0.78125 -5.828125 C 1.070312 -5.828125 1.257812 -5.816406 1.34375 -5.796875 C 4.757812 -13.484375 7.828125 -19.867188 10.546875 -24.953125 C 11.085938 -26.035156 11.640625 -26.828125 12.203125 -27.328125 C 12.773438 -27.835938 13.492188 -28.09375 14.359375 -28.09375 C 14.484375 -28.09375 14.785156 -28.046875 15.265625 -27.953125 C 15.742188 -27.867188 16.101562 -27.84375 16.34375 -27.875 C 14.9375 -26.5625 12.957031 -23.660156 10.40625 -19.171875 C 7.863281 -14.679688 5.457031 -9.878906 3.1875 -4.765625 C 3.875 -3.921875 4.351562 -2.796875 4.625 -1.390625 L 4.765625 -0.8125 C 4.816406 -0.8125 4.859375 -0.8125 4.890625 -0.8125 C 5.703125 -0.8125 6.554688 -1.28125 7.453125 -2.21875 C 8.347656 -3.164062 9.078125 -4.140625 9.640625 -5.140625 C 10.210938 -6.140625 10.675781 -7.019531 11.03125 -7.78125 C 11.394531 -8.550781 11.625 -8.960938 11.71875 -9.015625 C 11.8125 -9.078125 11.894531 -9.097656 11.96875 -9.078125 C 12.039062 -9.066406 12.101562 -9.039062 12.15625 -9 C 12.21875 -8.957031 12.25 -8.882812 12.25 -8.78125 C 12.25 -8.675781 12.222656 -8.5625 12.171875 -8.4375 C 9.679688 -2.78125 7.238281 0.046875 4.84375 0.046875 C 4.875 0.523438 4.890625 1.3125 4.890625 2.40625 C 4.890625 3.5 4.617188 5.117188 4.078125 7.265625 C 3.546875 9.421875 2.644531 11.351562 1.375 13.0625 C 0.101562 14.769531 -1.265625 15.625 -2.734375 15.625 Z M -2.78125 13.15625 C -2.78125 14.019531 -2.539062 14.453125 -2.0625 14.453125 C -1.488281 14.453125 -0.703125 13.785156 0.296875 12.453125 C 1.296875 11.117188 2.144531 9.289062 2.84375 6.96875 C 3.550781 4.65625 3.90625 2.554688 3.90625 0.671875 C 3.90625 0.523438 3.90625 0.375 3.90625 0.21875 C 3.757812 0.21875 3.625 0.21875 3.5 0.21875 C 2.632812 0.21875 1.898438 -0.0195312 1.296875 -0.5 C -1.421875 6.382812 -2.78125 10.9375 -2.78125 13.15625 Z M 3.546875 -0.625 L 3.8125 -0.625 C 3.726562 -1.914062 3.367188 -2.945312 2.734375 -3.71875 L 1.75 -1.484375 C 2.050781 -0.910156 2.648438 -0.625 3.546875 -0.625 Z M 3.546875 -0.625 "/></g></g></g><g fill="#292727" fill-opacity="1"><g transform="translate(132.8391, 67.260658)"><g><path d="M 0.984375 -2.609375 C 0.984375 -3.890625 1.539062 -5.441406 2.65625 -7.265625 C 2.175781 -7.265625 2.039062 -7.503906 2.25 -7.984375 L 3.046875 -9.5625 C 4.066406 -11.507812 4.90625 -13.15625 5.5625 -14.5 C 5.863281 -15.125 6.445312 -15.4375 7.3125 -15.4375 L 10.0625 -15.4375 C 8.976562 -14.664062 7.890625 -13.164062 6.796875 -10.9375 C 5.703125 -8.707031 4.851562 -6.953125 4.25 -5.671875 C 3.65625 -4.398438 3.359375 -3.4375 3.359375 -2.78125 C 3.359375 -2.125 3.472656 -1.660156 3.703125 -1.390625 C 3.929688 -1.117188 4.238281 -0.984375 4.625 -0.984375 C 5.195312 -0.984375 5.988281 -1.582031 7 -2.78125 C 8.582031 -4.632812 10.8125 -8.539062 13.6875 -14.5 C 14.019531 -15.125 14.601562 -15.4375 15.4375 -15.4375 L 17.859375 -15.4375 C 17.203125 -14.925781 16.6875 -14.398438 16.3125 -13.859375 C 15.9375 -13.328125 15.421875 -12.375 14.765625 -11 C 12.972656 -7.40625 11.972656 -5.023438 11.765625 -3.859375 C 11.671875 -3.441406 11.625 -3.050781 11.625 -2.6875 C 11.625 -1.726562 11.953125 -1.222656 12.609375 -1.171875 C 14.222656 -1.171875 16.210938 -3.664062 18.578125 -8.65625 C 18.765625 -9.082031 18.945312 -9.25 19.125 -9.15625 C 19.300781 -9.0625 19.390625 -8.941406 19.390625 -8.796875 C 19.390625 -8.648438 19.253906 -8.304688 18.984375 -7.765625 C 18.710938 -7.222656 18.453125 -6.695312 18.203125 -6.1875 C 17.953125 -5.6875 17.5625 -4.992188 17.03125 -4.109375 C 16.507812 -3.222656 16.023438 -2.523438 15.578125 -2.015625 C 14.410156 -0.703125 13.265625 -0.046875 12.140625 -0.046875 C 11.015625 -0.046875 10.242188 -0.539062 9.828125 -1.53125 C 9.648438 -1.976562 9.5625 -2.546875 9.5625 -3.234375 C 9.5625 -3.921875 9.710938 -4.773438 10.015625 -5.796875 C 7.828125 -1.960938 5.804688 -0.046875 3.953125 -0.046875 C 2.335938 -0.046875 1.394531 -0.71875 1.125 -2.0625 C 1.03125 -2.21875 0.984375 -2.398438 0.984375 -2.609375 Z M 0.984375 -2.609375 "/></g></g></g><g fill="#292727" fill-opacity="1"><g transform="translate(148.550387, 67.260658)"><g><path d="M 5.03125 -8.65625 C 5 -8.539062 4.863281 -8.128906 4.625 -7.421875 C 4.382812 -6.722656 4.179688 -6.050781 4.015625 -5.40625 C 3.847656 -4.757812 3.765625 -4.113281 3.765625 -3.46875 C 3.765625 -2.832031 3.914062 -2.238281 4.21875 -1.6875 C 4.519531 -1.132812 5 -0.859375 5.65625 -0.859375 C 6.726562 -0.859375 7.773438 -1.582031 8.796875 -3.03125 C 9.816406 -4.476562 10.894531 -6.328125 12.03125 -8.578125 C 12.269531 -8.992188 12.492188 -9.15625 12.703125 -9.0625 C 12.847656 -8.945312 12.875 -8.789062 12.78125 -8.59375 C 12.695312 -8.40625 12.515625 -7.988281 12.234375 -7.34375 C 11.953125 -6.695312 11.742188 -6.242188 11.609375 -5.984375 C 11.472656 -5.734375 11.234375 -5.285156 10.890625 -4.640625 C 10.546875 -4.003906 10.242188 -3.523438 9.984375 -3.203125 C 9.734375 -2.890625 9.390625 -2.484375 8.953125 -1.984375 C 8.523438 -1.492188 8.113281 -1.128906 7.71875 -0.890625 C 6.675781 -0.234375 5.6875 0.09375 4.75 0.09375 C 3.820312 0.09375 3.101562 -0.109375 2.59375 -0.515625 C 2.09375 -0.921875 1.789062 -1.351562 1.6875 -1.8125 C 1.582031 -2.28125 1.53125 -2.691406 1.53125 -3.046875 C 1.53125 -3.410156 1.546875 -3.875 1.578125 -4.4375 C 1.660156 -5.394531 1.84375 -6.320312 2.125 -7.21875 C 2.414062 -8.125 2.578125 -8.632812 2.609375 -8.75 C 3.296875 -11.238281 4.273438 -13.945312 5.546875 -16.875 C 6.816406 -19.8125 7.890625 -22.019531 8.765625 -23.5 C 9.648438 -24.976562 10.347656 -25.988281 10.859375 -26.53125 C 11.878906 -27.601562 12.882812 -28.140625 13.875 -28.140625 C 14.5625 -28.140625 15.023438 -27.648438 15.265625 -26.671875 C 15.296875 -26.484375 15.3125 -26.253906 15.3125 -25.984375 C 15.3125 -24.972656 14.953125 -23.6875 14.234375 -22.125 C 11.660156 -16.414062 8.59375 -11.925781 5.03125 -8.65625 Z M 5.390625 -10.09375 C 6.910156 -11.65625 8.421875 -13.617188 9.921875 -15.984375 C 11.421875 -18.347656 12.519531 -20.359375 13.21875 -22.015625 C 13.925781 -23.679688 14.28125 -24.8125 14.28125 -25.40625 C 14.28125 -26.007812 14.175781 -26.3125 13.96875 -26.3125 C 13.664062 -26.3125 13.09375 -25.71875 12.25 -24.53125 C 11.414062 -23.351562 10.285156 -21.226562 8.859375 -18.15625 C 7.441406 -15.09375 6.285156 -12.40625 5.390625 -10.09375 Z M 5.390625 -10.09375 "/></g></g></g><g fill="#292727" fill-opacity="1"><g transform="translate(157.752706, 67.260658)"><g/></g></g><g fill="#292727" fill-opacity="1"><g transform="translate(169.064831, 67.260658)"><g><path d="M 16.828125 -1.609375 C 14.046875 0.628906 10.96875 1.75 7.59375 1.75 C 3.726562 1.75 1.347656 0.671875 0.453125 -1.484375 C 0.242188 -1.992188 0.140625 -2.582031 0.140625 -3.25 C 0.140625 -3.925781 0.484375 -4.65625 1.171875 -5.4375 C 2.242188 -6.65625 3.738281 -7.265625 5.65625 -7.265625 C 6.945312 -7.265625 8.238281 -7.03125 9.53125 -6.5625 C 10.832031 -6.101562 13.144531 -4.992188 16.46875 -3.234375 C 17.96875 -4.671875 19.460938 -6.582031 20.953125 -8.96875 C 22.453125 -11.363281 23.75 -13.675781 24.84375 -15.90625 C 25.9375 -18.144531 27.269531 -20.578125 28.84375 -23.203125 C 30.414062 -25.835938 31.976562 -28.023438 33.53125 -29.765625 C 30.175781 -31.765625 26.613281 -32.765625 22.84375 -32.765625 C 21.289062 -32.765625 19.707031 -32.601562 18.09375 -32.28125 C 13.457031 -31.289062 9.925781 -29.269531 7.5 -26.21875 C 6 -24.363281 5.25 -22.597656 5.25 -20.921875 C 5.25 -18.640625 6.34375 -17.15625 8.53125 -16.46875 C 9.3125 -16.257812 9.984375 -16.15625 10.546875 -16.15625 C 11.117188 -16.15625 11.753906 -16.242188 12.453125 -16.421875 C 13.160156 -16.609375 13.859375 -17.03125 14.546875 -17.6875 C 15.859375 -19 16.5625 -20.226562 16.65625 -21.375 C 16.6875 -21.632812 16.859375 -21.726562 17.171875 -21.65625 C 17.484375 -21.582031 17.609375 -21.351562 17.546875 -20.96875 C 17.253906 -18.78125 16.101562 -17.117188 14.09375 -15.984375 C 12.863281 -15.328125 11.640625 -15 10.421875 -15 L 8.078125 -15.390625 C 5.804688 -16.171875 4.3125 -17.625 3.59375 -19.75 C 3.289062 -20.5625 3.140625 -21.367188 3.140625 -22.171875 C 3.140625 -23.816406 3.753906 -25.445312 4.984375 -27.0625 C 7.617188 -30.59375 12.285156 -32.851562 18.984375 -33.84375 C 20.304688 -34.019531 21.609375 -34.109375 22.890625 -34.109375 C 27.054688 -34.109375 31.023438 -33.125 34.796875 -31.15625 C 35.960938 -32.5 37.035156 -33.519531 38.015625 -34.21875 C 39.003906 -34.925781 39.800781 -35.28125 40.40625 -35.28125 C 40.726562 -35.28125 40.921875 -35.210938 40.984375 -35.078125 C 41.046875 -34.941406 41.035156 -34.835938 40.953125 -34.765625 C 40.878906 -34.691406 40.785156 -34.65625 40.671875 -34.65625 C 40.160156 -34.65625 39.5 -34.113281 38.6875 -33.03125 C 37.882812 -31.957031 37.226562 -30.957031 36.71875 -30.03125 C 39.925781 -27.90625 42.363281 -25.179688 44.03125 -21.859375 C 45.382812 -19.191406 46.0625 -16.289062 46.0625 -13.15625 C 46.0625 -9.257812 45.132812 -6.160156 43.28125 -3.859375 C 41.75 -1.972656 39.890625 -0.640625 37.703125 0.140625 C 35.097656 1.066406 32.523438 1.53125 29.984375 1.53125 C 24.835938 1.53125 20.453125 0.484375 16.828125 -1.609375 Z M 17.90625 -2.421875 C 20.9375 -0.628906 24.484375 0.265625 28.546875 0.265625 C 33.273438 0.265625 37.046875 -1.078125 39.859375 -3.765625 C 42.109375 -5.953125 43.234375 -8.976562 43.234375 -12.84375 C 43.234375 -15.59375 42.691406 -18.179688 41.609375 -20.609375 C 40.265625 -23.691406 38.273438 -26.265625 35.640625 -28.328125 C 34.773438 -26.984375 33.109375 -24.265625 30.640625 -20.171875 C 28.171875 -16.085938 26.082031 -12.773438 24.375 -10.234375 C 22.664062 -7.691406 21.316406 -5.890625 20.328125 -4.828125 C 19.347656 -3.765625 18.539062 -2.960938 17.90625 -2.421875 Z M 15.3125 -2.328125 C 11.8125 -4.003906 9.59375 -5.003906 8.65625 -5.328125 C 7.726562 -5.660156 6.820312 -5.828125 5.9375 -5.828125 C 5.0625 -5.828125 4.359375 -5.5 3.828125 -4.84375 C 3.304688 -4.1875 3.046875 -3.597656 3.046875 -3.078125 C 3.046875 -2.554688 3.164062 -2.054688 3.40625 -1.578125 C 4.039062 -0.285156 5.328125 0.359375 7.265625 0.359375 C 10.140625 0.359375 12.820312 -0.535156 15.3125 -2.328125 Z M 15.3125 -2.328125 "/></g></g></g><g fill="#292727" fill-opacity="1"><g transform="translate(214.268479, 67.260658)"><g><path d="M 4.53125 -6.90625 C 4.113281 -5.894531 3.90625 -4.757812 3.90625 -3.5 C 3.90625 -2.664062 4.09375 -2 4.46875 -1.5 C 4.84375 -1.007812 5.375 -0.765625 6.0625 -0.765625 C 8.78125 -0.765625 11.25 -3.320312 13.46875 -8.4375 C 13.675781 -8.914062 13.929688 -9.125 14.234375 -9.0625 C 14.347656 -9.03125 14.40625 -8.953125 14.40625 -8.828125 C 14.40625 -8.710938 14.066406 -7.929688 13.390625 -6.484375 C 12.722656 -5.035156 12.046875 -3.863281 11.359375 -2.96875 C 9.828125 -0.875 7.941406 0.171875 5.703125 0.171875 C 4.503906 0.171875 3.484375 -0.210938 2.640625 -0.984375 C 1.804688 -1.765625 1.390625 -2.828125 1.390625 -4.171875 C 1.390625 -5.515625 1.710938 -6.941406 2.359375 -8.453125 C 3.003906 -9.972656 3.878906 -11.382812 4.984375 -12.6875 C 6.085938 -13.988281 7.359375 -14.9375 8.796875 -15.53125 C 9.484375 -15.832031 10.140625 -15.984375 10.765625 -15.984375 C 11.398438 -15.984375 11.988281 -15.800781 12.53125 -15.4375 C 13.03125 -15.019531 13.28125 -14.554688 13.28125 -14.046875 C 13.28125 -12.253906 12.207031 -10.535156 10.0625 -8.890625 C 9.394531 -8.378906 8.460938 -7.921875 7.265625 -7.515625 C 6.078125 -7.109375 5.164062 -6.90625 4.53125 -6.90625 Z M 12.078125 -14.09375 C 12.078125 -14.695312 11.835938 -15 11.359375 -15 C 10.515625 -15 9.242188 -13.960938 7.546875 -11.890625 C 6.523438 -10.640625 5.625 -9.234375 4.84375 -7.671875 C 5.351562 -7.671875 6.09375 -7.847656 7.0625 -8.203125 C 8.039062 -8.566406 8.890625 -9.050781 9.609375 -9.65625 C 11.253906 -11.0625 12.078125 -12.539062 12.078125 -14.09375 Z M 12.078125 -14.09375 "/></g></g></g><g fill="#292727" fill-opacity="1"><g transform="translate(224.997035, 67.260658)"><g><path d="M 10.8125 -10.328125 C 11.863281 -11.578125 12.390625 -12.632812 12.390625 -13.5 C 12.390625 -14.375 12.03125 -14.8125 11.3125 -14.8125 C 9.90625 -14.8125 8.304688 -13.523438 6.515625 -10.953125 C 5.941406 -10.140625 5.382812 -9.078125 4.84375 -7.765625 C 4.3125 -6.453125 4.046875 -5.265625 4.046875 -4.203125 C 4.046875 -3.140625 4.257812 -2.273438 4.6875 -1.609375 C 5.125 -0.953125 5.796875 -0.625 6.703125 -0.625 C 7.617188 -0.625 8.46875 -0.84375 9.25 -1.28125 C 10.03125 -1.71875 10.769531 -2.40625 11.46875 -3.34375 C 12.175781 -4.289062 12.707031 -5.078125 13.0625 -5.703125 C 13.425781 -6.328125 13.921875 -7.269531 14.546875 -8.53125 C 14.753906 -8.945312 14.929688 -9.117188 15.078125 -9.046875 C 15.234375 -8.972656 15.3125 -8.867188 15.3125 -8.734375 C 15.3125 -8.597656 15.109375 -8.101562 14.703125 -7.25 C 14.296875 -6.394531 13.890625 -5.59375 13.484375 -4.84375 C 13.085938 -4.09375 12.515625 -3.253906 11.765625 -2.328125 C 10.410156 -0.660156 8.566406 0.171875 6.234375 0.171875 C 4.554688 0.171875 3.351562 -0.238281 2.625 -1.0625 C 1.894531 -1.882812 1.53125 -2.832031 1.53125 -3.90625 C 1.53125 -5.21875 1.847656 -6.648438 2.484375 -8.203125 C 3.128906 -9.765625 3.875 -11.113281 4.71875 -12.25 C 6.445312 -14.613281 8.453125 -15.796875 10.734375 -15.796875 C 11.835938 -15.796875 12.632812 -15.535156 13.125 -15.015625 C 13.625 -14.492188 13.875 -13.890625 13.875 -13.203125 C 13.875 -12.179688 13.453125 -11.3125 12.609375 -10.59375 C 12.191406 -10.207031 11.84375 -10.015625 11.5625 -10.015625 C 11.28125 -10.015625 11.03125 -10.117188 10.8125 -10.328125 Z M 10.8125 -10.328125 "/></g></g></g><g fill="#292727" fill-opacity="1"><g transform="translate(236.354036, 67.260658)"><g><path d="M 10.734375 -15.71875 C 12.910156 -15.71875 14 -14.335938 14 -11.578125 C 14 -10.328125 13.671875 -8.984375 13.015625 -7.546875 C 12.179688 -5.597656 10.925781 -3.832031 9.25 -2.25 C 9.632812 -1.5 10.335938 -1.125 11.359375 -1.125 C 12.160156 -1.125 12.921875 -1.523438 13.640625 -2.328125 C 14.546875 -3.253906 15.191406 -4.066406 15.578125 -4.765625 C 15.960938 -5.472656 16.242188 -5.992188 16.421875 -6.328125 C 16.609375 -6.660156 16.84375 -7.128906 17.125 -7.734375 C 17.40625 -8.347656 17.578125 -8.722656 17.640625 -8.859375 C 17.703125 -8.992188 17.804688 -9.0625 17.953125 -9.0625 C 18.253906 -9.09375 18.40625 -8.988281 18.40625 -8.75 C 18.40625 -8.664062 18.375 -8.5625 18.3125 -8.4375 L 18.046875 -7.8125 C 17.867188 -7.394531 17.734375 -7.09375 17.640625 -6.90625 C 17.546875 -6.726562 17.382812 -6.40625 17.15625 -5.9375 C 16.9375 -5.476562 16.742188 -5.113281 16.578125 -4.84375 C 16.421875 -4.570312 16.195312 -4.210938 15.90625 -3.765625 C 15.625 -3.316406 15.367188 -2.957031 15.140625 -2.6875 C 14.921875 -2.425781 14.644531 -2.128906 14.3125 -1.796875 C 13.988281 -1.460938 13.675781 -1.207031 13.375 -1.03125 C 12.625 -0.582031 11.921875 -0.359375 11.265625 -0.359375 C 10.035156 -0.359375 9.078125 -0.75 8.390625 -1.53125 C 7.015625 -0.507812 5.742188 0 4.578125 0 C 2.390625 0 1.296875 -1.375 1.296875 -4.125 C 1.296875 -5.382812 1.628906 -6.734375 2.296875 -8.171875 C 3.191406 -10.265625 4.453125 -12.046875 6.078125 -13.515625 C 7.710938 -14.984375 9.265625 -15.71875 10.734375 -15.71875 Z M 11.21875 -14.3125 C 10.414062 -14.3125 9.457031 -13.773438 8.34375 -12.703125 C 7.238281 -11.628906 6.253906 -10.164062 5.390625 -8.3125 C 4.335938 -6.15625 3.8125 -4.382812 3.8125 -3 C 3.8125 -1.625 4.335938 -0.9375 5.390625 -0.9375 C 6.140625 -0.9375 6.976562 -1.34375 7.90625 -2.15625 C 7.425781 -2.84375 7.1875 -3.578125 7.1875 -4.359375 C 7.238281 -5.640625 7.757812 -6.28125 8.75 -6.28125 C 9.144531 -6.28125 9.46875 -6.144531 9.71875 -5.875 C 9.96875 -5.613281 10.09375 -5.367188 10.09375 -5.140625 C 10.09375 -4.910156 10.066406 -4.675781 10.015625 -4.4375 C 10.523438 -5.1875 11.109375 -6.25 11.765625 -7.625 C 12.515625 -9.15625 12.890625 -10.648438 12.890625 -12.109375 C 12.890625 -13.578125 12.332031 -14.3125 11.21875 -14.3125 Z M 11.21875 -14.3125 "/></g></g></g><g fill="#292727" fill-opacity="1"><g transform="translate(251.077756, 67.260658)"><g><path d="M 8.625 -18 C 8.625 -16.65625 7.769531 -15.382812 6.0625 -14.1875 C 6.65625 -14.15625 7.453125 -14.140625 8.453125 -14.140625 C 9.460938 -14.140625 10.726562 -14.210938 12.25 -14.359375 C 12.3125 -14.273438 12.34375 -14.035156 12.34375 -13.640625 C 12.34375 -13.253906 12.160156 -12.679688 11.796875 -11.921875 C 11.441406 -11.160156 11.125 -10.5 10.84375 -9.9375 C 10.5625 -9.382812 10.289062 -8.859375 10.03125 -8.359375 C 9.78125 -7.867188 9.492188 -7.265625 9.171875 -6.546875 C 8.859375 -5.835938 8.597656 -5.179688 8.390625 -4.578125 C 7.648438 -2.304688 7.769531 -1.171875 8.75 -1.171875 C 10.007812 -1.171875 11.867188 -3.664062 14.328125 -8.65625 C 14.535156 -9.050781 14.707031 -9.203125 14.84375 -9.109375 C 14.976562 -9.023438 15.046875 -8.914062 15.046875 -8.78125 C 15.046875 -8.644531 14.847656 -8.175781 14.453125 -7.375 C 14.066406 -6.582031 13.648438 -5.769531 13.203125 -4.9375 C 12.753906 -4.101562 12.050781 -3.128906 11.09375 -2.015625 C 9.957031 -0.640625 8.863281 0.046875 7.8125 0.046875 C 6.644531 0.046875 5.835938 -0.65625 5.390625 -2.0625 C 5.296875 -2.332031 5.25 -2.734375 5.25 -3.265625 C 5.25 -3.804688 5.421875 -4.523438 5.765625 -5.421875 C 6.109375 -6.328125 6.65625 -7.421875 7.40625 -8.703125 C 8.15625 -9.992188 8.570312 -10.75 8.65625 -10.96875 C 8.75 -11.195312 8.796875 -11.414062 8.796875 -11.625 C 8.796875 -12.550781 7.597656 -13.046875 5.203125 -13.109375 L 4.671875 -11.671875 C 2.785156 -6.734375 0.972656 -3.425781 -0.765625 -1.75 C -1.054688 -1.476562 -1.203125 -1.566406 -1.203125 -2.015625 C -1.203125 -2.109375 -1.175781 -2.210938 -1.125 -2.328125 C 0.550781 -4.546875 2.003906 -7.164062 3.234375 -10.1875 C 4.460938 -13.207031 5.316406 -16.082031 5.796875 -18.8125 C 5.972656 -19.738281 6.390625 -20.203125 7.046875 -20.203125 C 7.703125 -20.203125 8.179688 -19.78125 8.484375 -18.9375 C 8.578125 -18.675781 8.625 -18.363281 8.625 -18 Z M 8.625 -18 "/></g></g></g></svg>